<svg xmlns="http://www.w3.org/2000/svg" height="512" viewBox="0 0 64 64" width="512"><path d="M29 23h-2a8 8 0 0 0-8 8v2h13V23z" fill="#ffe477"/><path d="M45 33v20a8 8 0 0 1-8 8H27a8 8 0 0 1-8-8V33z" fill="#ffcd00"/><path d="M9 7v3H3V4h6z" fill="#e0e0e2"/><path d="M9 3h10v8H9zm20 15h6v5h-6z" fill="#57565c"/><path d="M37 23h-5v10h13v-2a8 8 0 0 0-8-8z" fill="#ffe477"/><path d="M35 33v2a3 3 0 0 1-6 0v-6a3 3 0 0 1 6 0z" fill="#e0e0e2"/><path d="M58.5 6H20V3a1 1 0 0 0-1-1H9a1 1 0 0 0-1 1H3a1 1 0 0 0-1 1v6a1 1 0 0 0 1 1h5a1 1 0 0 0 1 1h10a1 1 0 0 0 1-1V8h38.5a1.5 1.5 0 0 1 0 3H34a3 3 0 0 0-3 3v3h-2a1 1 0 0 0-1 1v4h-1a9.01 9.01 0 0 0-9 9v22a9.01 9.01 0 0 0 9 9h10a9.01 9.01 0 0 0 9-9V31a9.01 9.01 0 0 0-9-9h-1v-4a1 1 0 0 0-1-1h-2v-3a1 1 0 0 1 1-1h24.5a3.5 3.5 0 0 0 0-7zM8 6H6v2h2v1H4V5h4zm10 4h-8V4h8zm2 21a7.008 7.008 0 0 1 7-7h4v1.142A4 4 0 0 0 28 29v3h-8zm12-4a2 2 0 0 1 2 2v6a2 2 0 0 1-4 0v-6a2 2 0 0 1 2-2zm12 26a7.008 7.008 0 0 1-7 7H27a7.008 7.008 0 0 1-7-7V34h8v1a4 4 0 0 0 8 0v-1h8zm-7-29a7.008 7.008 0 0 1 7 7v1h-8v-3a4 4 0 0 0-3-3.858V24zm-3-5v3h-4v-3z"/></svg>